<svg width="41" height="40" viewBox="0 0 41 40" fill="none" xmlns="http://www.w3.org/2000/svg">
<path id="Vector" d="M20.5 0C9.49999 0 0.5 9.01607 0.5 20.1205C0.5 30.1606 7.81999 38.494 17.38 40V25.9438H12.3V20.1205H17.38V15.6827C17.38 10.6426 20.36 7.87149 24.94 7.87149C27.12 7.87149 29.4 8.25301 29.4 8.25301V13.2129H26.88C24.4 13.2129 23.62 14.759 23.62 16.3454V20.1205H29.18L28.28 25.9438H23.62V40C28.3329 39.2527 32.6244 36.8384 35.7198 33.1929C38.8153 29.5474 40.5107 24.9109 40.5 20.1205C40.5 9.01607 31.5 0 20.5 0Z" fill="white"/>
</svg>
