<svg width="146" height="146" viewBox="0 0 146 146" fill="none" xmlns="http://www.w3.org/2000/svg">
<path fill-rule="evenodd" clip-rule="evenodd" d="M78.7038 0.604492H67.2799V39.5129C66.9568 39.568 66.6352 39.6276 66.3153 39.6918L52.4807 3.32613L41.8033 7.38812L55.6611 43.8147C55.41 43.9653 55.1609 44.119 54.9141 44.2759L29.0696 15.0929L20.5173 22.6668L46.4422 51.9407C46.404 51.9893 46.366 52.0379 46.328 52.0867L12.0784 33.212L6.56457 43.2173L40.9441 62.1635C40.8628 62.409 40.7843 62.6556 40.7085 62.9035L1.8402 57.331L0.218933 68.6393L35.3443 73.6752L0.325425 79.4048L2.17002 90.6789L41.2493 84.2849L41.2721 84.3476L6.63263 103.538L12.1688 113.531L46.9523 94.2607C47.0783 94.4132 47.2055 94.5647 47.3341 94.7149L21.6036 125.041L30.3146 132.432L55.9678 102.197L41.9519 139.289L52.6383 143.327L66.7574 105.962C66.9311 105.995 67.1053 106.026 67.2799 106.055V146H78.7038V106.055C78.9027 106.022 79.1009 105.986 79.2986 105.949L93.5014 143.282L104.179 139.22L89.9984 101.945C90.1582 101.852 90.3171 101.757 90.4752 101.662L116.913 131.514L125.465 123.94L99.1749 94.254L133.904 113.393L139.418 103.388L104.738 84.2758C104.812 84.0699 104.885 83.8631 104.955 83.6553L144.143 89.2737L145.764 77.9653L110.647 72.9305L145.658 67.2022L143.813 55.9282L105.073 62.2665C105.054 62.2085 105.035 62.1505 105.016 62.0925L139.351 43.0706L133.814 33.0778L99.6096 52.0277C99.4382 51.8081 99.264 51.5907 99.0872 51.3755L124.38 21.5649L115.669 14.174L90.4535 43.8936L90.3814 43.8501C90.3396 43.8249 90.2978 43.7998 90.2559 43.7749L104.032 7.31773L93.3454 3.27967L79.5922 39.6766C79.2974 39.6182 79.0013 39.5636 78.7038 39.5129V0.604492Z" fill="#6A45FF"/>
</svg>
