<svg width="41" height="40" viewBox="0 0 41 40" fill="none" xmlns="http://www.w3.org/2000/svg">
<path id="Subtract" fill-rule="evenodd" clip-rule="evenodd" d="M20.5 40C31.5457 40 40.5 31.0457 40.5 20C40.5 8.9543 31.5457 0 20.5 0C9.4543 0 0.5 8.9543 0.5 20C0.5 31.0457 9.4543 40 20.5 40ZM25.2519 8.33333C25.2515 9.67815 25.7398 10.9773 26.6259 11.9889C28.3889 14.0241 30.8259 13.9074 30.8259 13.9074V17.913C28.8262 17.9164 26.8761 17.2905 25.2519 16.1241V24.2778C25.2519 28.3611 21.9463 31.6667 17.8759 31.6667C14.0778 31.6667 10.5 28.5944 10.5 24.2778C10.5 19.8444 14.4148 16.3704 18.887 16.9667V21.063C16.6704 20.3759 14.5185 22.0481 14.5185 24.2778C14.5185 26.1444 16.0481 27.6481 17.8889 27.6481C18.7593 27.648 19.5957 27.3101 20.2219 26.7057C20.8482 26.1012 21.2154 25.2773 21.2463 24.4074V8.33333H25.2519Z" fill="white"/>
</svg>
