<svg width="41" height="40" viewBox="0 0 41 40" fill="none" xmlns="http://www.w3.org/2000/svg">
<path id="Subtract" fill-rule="evenodd" clip-rule="evenodd" d="M20.5 40C31.5457 40 40.5 31.0457 40.5 20C40.5 8.9543 31.5457 0 20.5 0C9.4543 0 0.5 8.9543 0.5 20C0.5 31.0457 9.4543 40 20.5 40ZM18.0251 17.5251C18.6815 16.8687 19.5717 16.5 20.5 16.5C21.4283 16.5 22.3185 16.8687 22.9749 17.5251C23.6313 18.1815 24 19.0717 24 20C24 20.9283 23.6313 21.8185 22.9749 22.4749C22.3185 23.1313 21.4283 23.5 20.5 23.5C19.5717 23.5 18.6815 23.1313 18.0251 22.4749C17.3687 21.8185 17 20.9283 17 20C17 19.0717 17.3687 18.1815 18.0251 17.5251ZM24.6248 15.8752C23.5308 14.7812 22.0471 14.1667 20.5 14.1667C18.9529 14.1667 17.4692 14.7812 16.3752 15.8752C15.2812 16.9692 14.6667 18.4529 14.6667 20C14.6667 21.5471 15.2812 23.0308 16.3752 24.1248C17.4692 25.2188 18.9529 25.8333 20.5 25.8333C22.0471 25.8333 23.5308 25.2188 24.6248 24.1248C25.7188 23.0308 26.3333 21.5471 26.3333 20C26.3333 18.4529 25.7188 16.9692 24.6248 15.8752ZM27.6562 14.9062C27.9297 14.6327 28.0833 14.2618 28.0833 13.875C28.0833 13.4882 27.9297 13.1173 27.6562 12.8438C27.3827 12.5703 27.0118 12.4167 26.625 12.4167C26.2382 12.4167 25.8673 12.5703 25.5938 12.8438C25.3203 13.1173 25.1667 13.4882 25.1667 13.875C25.1667 14.2618 25.3203 14.6327 25.5938 14.9062C25.8673 15.1797 26.2382 15.3333 26.625 15.3333C27.0118 15.3333 27.3827 15.1797 27.6562 14.9062ZM15.7995 10.7343C17.1423 10.6748 17.6137 10.6667 20.5 10.6667C23.4633 10.6667 23.9125 10.6737 25.1993 10.7343C26.1117 10.7763 26.7253 10.8988 27.297 11.1205C27.7736 11.2957 28.2044 11.5765 28.557 11.9418C28.9211 12.2953 29.2013 12.7259 29.3772 13.2018C29.5977 13.7712 29.7213 14.3872 29.7645 15.2995C29.824 16.6423 29.8322 17.1137 29.8322 20C29.8322 22.961 29.8252 23.4125 29.7645 24.6993C29.7225 25.6117 29.5988 26.2253 29.3772 26.7993C29.1835 27.3022 28.949 27.6673 28.5558 28.0593C28.2024 28.4235 27.7719 28.7037 27.2958 28.8795C26.7253 29.1 26.1117 29.2225 25.1993 29.2657C23.8565 29.3252 23.3863 29.3333 20.4988 29.3333C17.5367 29.3333 17.0863 29.3263 15.7983 29.2657C14.8883 29.2237 14.2747 29.1 13.6983 28.8772C13.1967 28.6835 12.8315 28.449 12.4383 28.057C12.051 27.6697 11.8177 27.3045 11.6193 26.797C11.3988 26.2288 11.2763 25.614 11.2332 24.7005C11.1737 23.3577 11.1655 22.8875 11.1655 20C11.1655 17.0378 11.1737 16.5875 11.2343 15.2995C11.2763 14.386 11.3988 13.7735 11.6205 13.2018C11.7959 12.7253 12.0767 12.2946 12.4418 11.9418C12.7946 11.577 13.2254 11.2966 13.7018 11.1217C14.2712 10.9 14.8848 10.7775 15.7995 10.7343ZM25.3102 8.40333C24.0653 8.345 23.6698 8.33333 20.5 8.33333C17.3302 8.33333 16.9347 8.3485 15.6898 8.40333C14.4473 8.46167 13.6015 8.6565 12.8583 8.94583C12.0795 9.23835 11.3739 9.69744 10.791 10.291C10.1969 10.8735 9.73777 11.5792 9.44583 12.3583C9.1565 13.1027 8.96167 13.9473 8.90333 15.191C8.845 16.4347 8.83333 16.8302 8.83333 20C8.83333 23.1698 8.84733 23.5653 8.90333 24.809C8.96167 26.0515 9.1565 26.8985 9.44583 27.6417C9.73862 28.4204 10.1977 29.1259 10.791 29.709C11.3738 30.3028 12.0794 30.7619 12.8583 31.0542C13.6027 31.3423 14.4485 31.5383 15.6898 31.5967C16.9347 31.655 17.3302 31.6667 20.5 31.6667C23.6698 31.6667 24.0653 31.6515 25.3102 31.5967C26.5515 31.5383 27.3985 31.3423 28.1417 31.0542C28.9202 30.761 29.6256 30.302 30.209 29.709C30.8029 29.1264 31.2621 28.4207 31.5542 27.6417C31.8423 26.8973 32.0383 26.0515 32.0967 24.809C32.155 23.5653 32.1667 23.1698 32.1667 20C32.1667 16.8302 32.1515 16.4347 32.0967 15.191C32.0383 13.9485 31.8423 13.1015 31.5542 12.3583C31.2613 11.5797 30.8022 10.8742 30.209 10.291C29.5603 9.6435 28.9117 9.24217 28.1417 8.94583C27.3985 8.6565 26.5515 8.46167 25.3102 8.40333Z" fill="white"/>
</svg>
