<svg width="41" height="40" viewBox="0 0 41 40" fill="none" xmlns="http://www.w3.org/2000/svg">
<path id="Vector" d="M20.5 0C31.5571 0 40.5 8.94286 40.5 20C40.5 31.0571 31.5571 40 20.5 40C9.44286 40 0.5 31.0571 0.5 20C0.5 8.94286 9.44286 0 20.5 0ZM16.8429 30.5429C25.7 30.5429 30.5571 23.2 30.5571 16.8286V16.2C31.5 15.5143 32.3286 14.6571 32.9571 13.6857C32.1 14.0571 31.1571 14.3143 30.1857 14.4571C31.1857 13.8571 31.9571 12.9143 32.3 11.8C31.3571 12.3429 30.3286 12.7429 29.2429 12.9714C28.3571 12.0286 27.1 11.4571 25.7286 11.4571C23.0714 11.4571 20.9 13.6286 20.9 16.2857C20.9 16.6571 20.9286 17.0286 21.0429 17.3714C17.0429 17.1714 13.4714 15.2571 11.1 12.3429C10.7 13.0571 10.4429 13.8857 10.4429 14.7714C10.4429 16.4286 11.3 17.9143 12.5857 18.7714C11.7857 18.7714 11.0429 18.5429 10.4143 18.1714V18.2286C10.4143 20.5714 12.0714 22.5143 14.2714 22.9714C13.8714 23.0857 13.4429 23.1429 13.0143 23.1429C12.7 23.1429 12.4143 23.1143 12.1 23.0571C12.7 24.9714 14.5 26.3714 16.5857 26.4C14.9286 27.6857 12.8429 28.4571 10.5857 28.4571C10.1857 28.4571 9.81429 28.4571 9.44286 28.4C11.5571 29.7714 14.1 30.5714 16.8143 30.5714" fill="white"/>
</svg>
